# xmcd
#
# Track frame offsets:
#	150
#	12483
#	24079
#	36821
#	47725
#	56078
#	68107
#	80810
#	97800
#	109692
#	121096
#	129687
#	137913
#	149967
#	166083
#	175800
#	192104
#	204783
#
# Disc length: 2898 seconds
#
# Revision: 0
# Processed by: cddbd v1.5.1PL2 Copyright (c) Steve Scherf et al.
# Submitted via: EasyCDDAExtractor 9.0.0.1
#
DISCID=f70b5012
DTITLE=Johnny Cash - Ring Of Fire (Box Set) disc 1
DYEAR=1999
DGENRE=Country
TTITLE0=Folsom Prison Blues
TTITLE1=These Hands
TTITLE2=Peace In The Valley
TTITLE3=Rock Island Line
TTITLE4=The Wall
TTITLE5=I Still Miss Someone
TTITLE6=Ring Of Fire
TTITLE7=Sunday Morning Coming Down
TTITLE8=Highwayman
TTITLE9=Big River
TTITLE10=I Got Stripes
TTITLE11=Get Rhythm
TTITLE12=Sixteen Tons
TTITLE13=A Boy Named Sue
TTITLE14=Help Me
TTITLE15=City Of New Orleans
TTITLE16=The Long Black Veil
TTITLE17=Jackson
EXTD=
EXTT0=
EXTT1=
EXTT2=
EXTT3=
EXTT4=
EXTT5=
EXTT6=
EXTT7=
EXTT8=
EXTT9=
EXTT10=
EXTT11=
EXTT12=
EXTT13=
EXTT14=
EXTT15=
EXTT16=
EXTT17=
PLAYORDER=
